<svg width="280" height="136" viewBox="0 0 280 136" fill="none" xmlns="http://www.w3.org/2000/svg">
<path d="M234.458 90.028C259.847 90.028 280.43 69.4456 280.43 44.0559V0.382446H234.458V90.028Z" fill="#8CC9FF"/>
<path d="M233.691 136C233.691 110.61 213.109 90.0279 187.719 90.0279L144.046 90.028L144.046 136L233.691 136Z" fill="#8CC9FF"/>
<path d="M234.458 90.028H233.691C208.725 90.028 188.485 69.7886 188.485 44.8221H234.458V90.028Z" fill="#0073DC"/>
<path d="M0 44.822L0.766205 44.822C25.7327 44.822 45.9721 65.0614 45.9721 90.0279L7.90404e-06 90.0279L0 44.822Z" fill="#0073DC"/>
<path d="M53.6342 135.617L53.6342 134.851C53.6342 109.884 73.8735 89.6449 98.84 89.6449L98.84 135.617L53.6342 135.617Z" fill="#ECF6FF"/>
<path d="M234.458 136L234.458 135.234C234.458 110.267 254.697 90.0279 279.663 90.0279L279.663 136L234.458 136Z" fill="#ECF6FF"/>
<rect width="22.986" height="22.986" transform="matrix(1 0 0 -1 143.28 45.5883)" fill="#ECF6FF"/>
<rect width="44.4397" height="44.4397" transform="matrix(1 0 0 -1 98.84 90.028)" fill="#0073DC"/>
<rect width="22.2198" height="22.986" transform="matrix(1 0 0 -1 110.333 124.507)" fill="#0073DC"/>
<circle cx="3.0648" cy="3.0648" r="3.0648" transform="matrix(1 0 0 -1 16.8564 116.079)" fill="#ECF6FF"/>
<circle cx="3.0648" cy="3.0648" r="3.0648" transform="matrix(1 0 0 -1 26.817 116.079)" fill="#ECF6FF"/>
<circle cx="3.0648" cy="3.0648" r="3.0648" transform="matrix(1 0 0 -1 168.564 76.2363)" fill="#ECF6FF"/>
<circle cx="3.0648" cy="3.0648" r="3.0648" transform="matrix(1 0 0 -1 158.604 76.2363)" fill="#ECF6FF"/>
<circle cx="3.0648" cy="3.0648" r="3.0648" transform="matrix(1 0 0 -1 158.604 65.5095)" fill="#ECF6FF"/>
<circle cx="3.0648" cy="3.0648" r="3.0648" transform="matrix(1 0 0 -1 168.564 65.5095)" fill="#ECF6FF"/>
</svg>
