<svg width="96" height="47" viewBox="0 0 96 47" fill="none" xmlns="http://www.w3.org/2000/svg">
<path d="M79.5675 30.4231C88.184 30.4231 95.169 23.4381 95.169 14.8216L95.169 0.000183649L79.5675 0.000185013L79.5675 30.4231Z" fill="#8CC9FF"/>
<path d="M79.3076 46.0244C79.3076 37.4079 72.3225 30.4229 63.7061 30.4229L48.8847 30.4229L48.8847 46.0244L79.3076 46.0244Z" fill="#8CC9FF"/>
<path d="M79.5675 30.4231L79.3075 30.4231C70.8347 30.4231 63.9661 23.5545 63.9661 15.0816L79.5675 15.0816L79.5675 30.4231Z" fill="#0073DC"/>
<path d="M-4.57764e-05 15.0813L0.259986 15.0813C8.73284 15.0813 15.6014 21.9499 15.6014 30.4228L-4.17528e-05 30.4228L-4.57764e-05 15.0813Z" fill="#0073DC"/>
<path d="M18.2018 45.8945L18.2018 45.6345C18.2018 37.1616 25.0704 30.293 33.5432 30.293L33.5432 45.8945L18.2018 45.8945Z" fill="#ECF6FF"/>
<path d="M79.5675 46.0244L79.5675 45.7644C79.5675 37.2915 86.4362 30.4229 94.909 30.4229L94.909 46.0244L79.5675 46.0244Z" fill="#ECF6FF"/>
<rect width="7.80075" height="7.80075" transform="matrix(1 -8.74228e-08 -8.74228e-08 -1 48.6246 15.3411)" fill="#ECF6FF"/>
<rect width="15.0814" height="15.0814" transform="matrix(1 -8.74228e-08 -8.74228e-08 -1 33.5432 30.4231)" fill="#0073DC"/>
<rect width="7.54072" height="7.80075" transform="matrix(1 -8.74228e-08 -8.74228e-08 -1 37.4436 42.124)" fill="#0073DC"/>
<circle cx="1.0401" cy="1.0401" r="1.0401" transform="matrix(1 -8.74228e-08 -8.74228e-08 -1 5.72052 39.2639)" fill="#ECF6FF"/>
<circle cx="1.0401" cy="1.0401" r="1.0401" transform="matrix(1 -8.74228e-08 -8.74228e-08 -1 9.10086 39.2639)" fill="#ECF6FF"/>
<circle cx="1.0401" cy="1.0401" r="1.0401" transform="matrix(1 -8.74228e-08 -8.74228e-08 -1 57.2054 25.7422)" fill="#ECF6FF"/>
<circle cx="1.0401" cy="1.0401" r="1.0401" transform="matrix(1 -8.74228e-08 -8.74228e-08 -1 53.8251 25.7422)" fill="#ECF6FF"/>
<circle cx="1.0401" cy="1.0401" r="1.0401" transform="matrix(1 -8.74228e-08 -8.74228e-08 -1 53.8251 22.1023)" fill="#ECF6FF"/>
<circle cx="1.0401" cy="1.0401" r="1.0401" transform="matrix(1 -8.74228e-08 -8.74228e-08 -1 57.2054 22.1023)" fill="#ECF6FF"/>
</svg>
