<svg width="281" height="136" viewBox="0 0 281 136" fill="none" xmlns="http://www.w3.org/2000/svg">
<path d="M234.972 45.9721C260.361 45.9721 280.944 66.5545 280.944 91.9441L280.944 135.618L234.972 135.618L234.972 45.9721Z" fill="#8CC9FF"/>
<path d="M234.205 0C234.205 25.3897 213.623 45.9721 188.233 45.9721L144.56 45.9721L144.56 3.91853e-06L234.205 0Z" fill="#8CC9FF"/>
<path d="M234.972 45.9721L234.205 45.9721C209.239 45.9721 189 66.2114 189 91.1779L234.972 91.1779L234.972 45.9721Z" fill="#0073DC"/>
<path d="M0.51416 91.178L1.28037 91.178C26.2469 91.178 46.4862 70.9386 46.4862 45.9721L0.514164 45.9721L0.51416 91.178Z" fill="#0073DC"/>
<path d="M54.1483 0.383118L54.1483 1.14932C54.1483 26.1158 74.3877 46.3552 99.3542 46.3552L99.3542 0.383116L54.1483 0.383118Z" fill="#ECF6FF"/>
<path d="M234.972 0L234.972 0.766205C234.972 25.7327 255.211 45.9721 280.178 45.9721L280.178 -1.97601e-06L234.972 0Z" fill="#ECF6FF"/>
<rect x="143.794" y="90.4117" width="22.986" height="22.986" fill="#ECF6FF"/>
<rect x="99.3541" y="45.9721" width="44.4397" height="44.4397" fill="#0073DC"/>
<rect x="110.847" y="11.493" width="22.2198" height="22.986" fill="#0073DC"/>
<circle cx="20.4354" cy="22.9861" r="3.0648" fill="#ECF6FF"/>
<circle cx="30.396" cy="22.9861" r="3.0648" fill="#ECF6FF"/>
<circle cx="172.143" cy="62.8285" r="3.0648" fill="#ECF6FF"/>
<circle cx="162.183" cy="62.8285" r="3.0648" fill="#ECF6FF"/>
<circle cx="162.183" cy="73.5553" r="3.0648" fill="#ECF6FF"/>
<circle cx="172.143" cy="73.5553" r="3.0648" fill="#ECF6FF"/>
</svg>
