<svg width="282" height="136" viewBox="0 0 282 136" fill="none" xmlns="http://www.w3.org/2000/svg">
<path d="M46.9158 90.0279C21.5261 90.0279 0.943718 69.4455 0.943718 44.0559V0.382416H46.9158V90.0279Z" fill="#8CC9FF"/>
<path d="M47.682 136C47.682 110.61 68.2644 90.0279 93.6541 90.0279L137.328 90.028L137.328 136L47.682 136Z" fill="#8CC9FF"/>
<path d="M46.9158 90.0279H47.682C72.6485 90.0279 92.8878 69.7886 92.8878 44.8221H46.9158V90.0279Z" fill="#0073DC"/>
<path d="M281.373 44.8221L280.607 44.8221C255.641 44.822 235.401 65.0614 235.401 90.0279L281.373 90.0279L281.373 44.8221Z" fill="#0073DC"/>
<path d="M227.739 135.617L227.739 134.851C227.739 109.884 207.5 89.6449 182.533 89.6449L182.533 135.617L227.739 135.617Z" fill="#ECF6FF"/>
<path d="M46.9158 136L46.9158 135.234C46.9158 110.267 26.6764 90.0279 1.70992 90.0279L1.70992 136L46.9158 136Z" fill="#ECF6FF"/>
<rect x="138.094" y="45.5883" width="22.986" height="22.986" transform="rotate(180 138.094 45.5883)" fill="#ECF6FF"/>
<rect x="182.533" y="90.0279" width="44.4397" height="44.4397" transform="rotate(180 182.533 90.0279)" fill="#0073DC"/>
<rect x="171.04" y="124.507" width="22.2198" height="22.986" transform="rotate(180 171.04 124.507)" fill="#0073DC"/>
<circle cx="261.452" cy="113.014" r="3.0648" transform="rotate(180 261.452 113.014)" fill="#ECF6FF"/>
<circle cx="251.491" cy="113.014" r="3.0648" transform="rotate(180 251.491 113.014)" fill="#ECF6FF"/>
<circle cx="109.744" cy="73.1715" r="3.0648" transform="rotate(180 109.744 73.1715)" fill="#ECF6FF"/>
<circle cx="119.705" cy="73.1715" r="3.0648" transform="rotate(180 119.705 73.1715)" fill="#ECF6FF"/>
<circle cx="119.705" cy="62.4447" r="3.0648" transform="rotate(180 119.705 62.4447)" fill="#ECF6FF"/>
<circle cx="109.744" cy="62.4447" r="3.0648" transform="rotate(180 109.744 62.4447)" fill="#ECF6FF"/>
</svg>
